%TF.GenerationSoftware,KiCad,Pcbnew,7.0.1-0*%
%TF.CreationDate,2026-05-01T16:11:44-03:00*%
%TF.ProjectId,w5500,77353530-302e-46b6-9963-61645f706362,rev?*%
%TF.SameCoordinates,Original*%
%TF.FileFunction,Copper,L1,Top*%
%TF.FilePolarity,Positive*%
%FSLAX46Y46*%
G04 Gerber Fmt 4.6, Leading zero omitted, Abs format (unit mm)*
G04 Created by KiCad (PCBNEW 7.0.1-0) date 2026-05-01 16:11:44*
%MOMM*%
%LPD*%
G01*
G04 APERTURE LIST*
%TA.AperFunction,ComponentPad*%
%ADD10R,2.000000X2.000000*%
%TD*%
%TA.AperFunction,ComponentPad*%
%ADD11R,2.200000X2.200000*%
%TD*%
%TA.AperFunction,ComponentPad*%
%ADD12R,3.000000X2.200000*%
%TD*%
%TA.AperFunction,ComponentPad*%
%ADD13R,3.200000X2.500000*%
%TD*%
%TA.AperFunction,ComponentPad*%
%ADD14R,3.000000X2.500000*%
%TD*%
%TA.AperFunction,ComponentPad*%
%ADD15R,2.500000X2.200000*%
%TD*%
%TA.AperFunction,ComponentPad*%
%ADD16R,2.200000X2.500000*%
%TD*%
%TA.AperFunction,ComponentPad*%
%ADD17R,2.500000X2.500000*%
%TD*%
%TA.AperFunction,Conductor*%
%ADD18C,2.200000*%
%TD*%
%TA.AperFunction,Conductor*%
%ADD19C,0.000000*%
%TD*%
%TA.AperFunction,Conductor*%
%ADD20C,2.000000*%
%TD*%
%TA.AperFunction,Conductor*%
%ADD21C,1.500000*%
%TD*%
%TA.AperFunction,Conductor*%
%ADD22C,0.200000*%
%TD*%
%TA.AperFunction,Profile*%
%ADD23C,1.000000*%
%TD*%
G04 APERTURE END LIST*
D10*
%TO.P,,SDA - INA*%
%TO.N,N/C*%
X110780000Y-51580000D03*
%TD*%
D11*
%TO.P,,BUCK 5v*%
%TO.N,N/C*%
X116330000Y-59350000D03*
%TD*%
%TO.P,JP2,GND1*%
%TO.N,N/C*%
X71610000Y-46920000D03*
D12*
%TO.P,JP2,SCL1*%
X71610000Y-52000000D03*
%TO.P,JP2,SDA1*%
X71610000Y-49460000D03*
%TO.P,JP2,VCC1*%
X71610000Y-54540000D03*
%TD*%
D11*
%TO.P,,GND 2*%
%TO.N,N/C*%
X118830000Y-48740000D03*
%TD*%
%TO.P,2,BUCK 5v*%
%TO.N,N/C*%
X116310000Y-41010000D03*
%TD*%
D13*
%TO.P,,GND*%
%TO.N,N/C*%
X106589000Y-58959600D03*
%TD*%
D11*
%TO.P,,12v IN*%
%TO.N,N/C*%
X116320000Y-51580000D03*
%TD*%
D14*
%TO.P,,3v3*%
%TO.N,N/C*%
X101508650Y-58959620D03*
%TD*%
D11*
%TO.P,8,12v IN*%
%TO.N,N/C*%
X116290000Y-48740000D03*
%TD*%
D15*
%TO.P,JP1,GND2*%
%TO.N,N/C*%
X84310000Y-46920000D03*
D12*
%TO.P,JP1,SCl2*%
X84310000Y-52000000D03*
%TO.P,JP1,SDA2*%
X84310000Y-49460000D03*
%TO.P,JP1,VCC2*%
X84310000Y-54540000D03*
%TD*%
D16*
%TO.P,7,GPIO12 - SDA*%
%TO.N,N/C*%
X73570000Y-41180000D03*
%TD*%
D11*
%TO.P,,12v BUCK*%
%TO.N,N/C*%
X116310000Y-46090000D03*
%TD*%
%TO.P,,GND 2*%
%TO.N,N/C*%
X118860000Y-51580000D03*
%TD*%
%TO.P,,VCC INA*%
%TO.N,N/C*%
X110780000Y-43980000D03*
%TD*%
%TO.P,,12v BUCK*%
%TO.N,N/C*%
X116330000Y-54270000D03*
%TD*%
%TO.P,,GND INA*%
%TO.N,N/C*%
X110780000Y-46490000D03*
%TD*%
%TO.P,,GND 2/buck*%
%TO.N,N/C*%
X116330000Y-56810000D03*
%TD*%
%TO.P,,SCL - INA*%
%TO.N,N/C*%
X110780000Y-49020000D03*
%TD*%
D17*
%TO.P,,GND*%
%TO.N,N/C*%
X81190000Y-41170000D03*
%TD*%
D11*
%TO.P,1,GND 2/buck*%
%TO.N,N/C*%
X116310000Y-43550000D03*
%TD*%
D14*
%TO.P,11,VBUS*%
%TO.N,N/C*%
X111668650Y-58959620D03*
%TD*%
D16*
%TO.P,6,GPIO13 - SCL*%
%TO.N,N/C*%
X71030000Y-41180000D03*
%TD*%
D18*
%TO.N,*%
X69840000Y-44260000D02*
X68690000Y-45410000D01*
D19*
X80910000Y-53910000D02*
X80890000Y-53890000D01*
D20*
X88050000Y-49400000D02*
X88870000Y-50220000D01*
D18*
X68690000Y-48470000D02*
X69680000Y-49460000D01*
D21*
X71028650Y-41179620D02*
X70830000Y-41378270D01*
D20*
X109250000Y-56290000D02*
X113860000Y-56290000D01*
X109380000Y-42580000D02*
X110780000Y-43980000D01*
X84540000Y-42580000D02*
X86200000Y-40920000D01*
X107410000Y-50220000D02*
X108770000Y-51580000D01*
X118960000Y-56800000D02*
X118960000Y-51630000D01*
X88370000Y-53920000D02*
X112910000Y-53920000D01*
D18*
X70880000Y-41030000D02*
X66050000Y-41030000D01*
D20*
X118940000Y-43780000D02*
X118940000Y-48630000D01*
X116210000Y-46190000D02*
X116310000Y-46090000D01*
X78850000Y-51630000D02*
X78850000Y-48270000D01*
X84540000Y-42580000D02*
X109380000Y-42580000D01*
D18*
X77070000Y-45210000D02*
X75340000Y-46940000D01*
D20*
X113630000Y-53200000D02*
X113630000Y-49300000D01*
X84310000Y-49460000D02*
X84370000Y-49400000D01*
X84310000Y-46920000D02*
X84850000Y-46380000D01*
X84850000Y-46380000D02*
X110670000Y-46380000D01*
D21*
X71500000Y-49350000D02*
X71610000Y-49460000D01*
D20*
X106589000Y-58769000D02*
X106589000Y-58959600D01*
X113630000Y-49300000D02*
X113350000Y-49020000D01*
X111640000Y-58930970D02*
X111668650Y-58959620D01*
X84310000Y-46920000D02*
X84310000Y-46910000D01*
X113350000Y-49020000D02*
X110780000Y-49020000D01*
X88870000Y-50220000D02*
X107410000Y-50220000D01*
D18*
X66050000Y-41030000D02*
X65490000Y-41590000D01*
X68690000Y-45410000D02*
X68690000Y-48470000D01*
D20*
X113550000Y-43600000D02*
X113600000Y-43550000D01*
X113550000Y-46340000D02*
X113550000Y-43600000D01*
X110670000Y-46380000D02*
X110780000Y-46490000D01*
X74690000Y-58680000D02*
X71610000Y-55600000D01*
D18*
X73570000Y-41320970D02*
X73570000Y-43970000D01*
D20*
X116290000Y-48740000D02*
X116210000Y-48660000D01*
X71610000Y-55600000D02*
X71610000Y-54540000D01*
X116370000Y-54220000D02*
X116200000Y-54050000D01*
X78850000Y-48270000D02*
X84540000Y-42580000D01*
X106589000Y-58959600D02*
X108960000Y-56588600D01*
D18*
X71030000Y-41180000D02*
X70880000Y-41030000D01*
D20*
X108960000Y-56588600D02*
X108960000Y-56580000D01*
X116200000Y-54050000D02*
X116200000Y-51850000D01*
X113600000Y-43550000D02*
X116310000Y-43550000D01*
D18*
X65490000Y-41590000D02*
X65490000Y-52000000D01*
D20*
X116310000Y-43550000D02*
X118710000Y-43550000D01*
X111668650Y-58959620D02*
X111479620Y-58959620D01*
X84310000Y-52000000D02*
X86450000Y-52000000D01*
X118950000Y-56810000D02*
X118960000Y-56800000D01*
D21*
X73620000Y-41230970D02*
X73550000Y-41300970D01*
D20*
X113860000Y-56290000D02*
X114380000Y-56810000D01*
X101508650Y-58959620D02*
X101229030Y-58680000D01*
X112910000Y-53920000D02*
X113630000Y-53200000D01*
X116220000Y-40920000D02*
X116310000Y-41010000D01*
X111929030Y-59220000D02*
X116200000Y-59220000D01*
X84310000Y-54540000D02*
X81760000Y-54540000D01*
D18*
X71630000Y-46940000D02*
X71610000Y-46920000D01*
X69680000Y-49460000D02*
X71610000Y-49460000D01*
X73570000Y-43970000D02*
X73280000Y-44260000D01*
D20*
X113380000Y-46490000D02*
X113390000Y-46500000D01*
X110780000Y-46490000D02*
X113380000Y-46490000D01*
X86450000Y-52000000D02*
X88370000Y-53920000D01*
D19*
X71040000Y-52570000D02*
X71610000Y-52000000D01*
D20*
X101229030Y-58680000D02*
X74690000Y-58680000D01*
X111668650Y-58959620D02*
X111929030Y-59220000D01*
D22*
X81140000Y-41230000D02*
X81190000Y-41180000D01*
D18*
X75340000Y-46940000D02*
X71630000Y-46940000D01*
D20*
X108770000Y-51580000D02*
X110780000Y-51580000D01*
D18*
X77070000Y-41170000D02*
X77070000Y-45210000D01*
D20*
X84370000Y-49400000D02*
X88050000Y-49400000D01*
D18*
X81190000Y-41170000D02*
X77070000Y-41170000D01*
D20*
X81760000Y-54540000D02*
X78850000Y-51630000D01*
X108960000Y-56580000D02*
X109250000Y-56290000D01*
X86200000Y-40920000D02*
X116220000Y-40920000D01*
X111738270Y-58890000D02*
X111668650Y-58959620D01*
X106589000Y-58959600D02*
X106589000Y-58689000D01*
D18*
X65490000Y-52000000D02*
X71610000Y-52000000D01*
D20*
X118710000Y-43550000D02*
X118940000Y-43780000D01*
X114380000Y-56810000D02*
X118950000Y-56810000D01*
X116210000Y-48660000D02*
X116210000Y-46190000D01*
X113390000Y-46500000D02*
X113550000Y-46340000D01*
X118940000Y-48630000D02*
X118830000Y-48740000D01*
D18*
X73280000Y-44260000D02*
X69840000Y-44260000D01*
D19*
X83440000Y-53990000D02*
X83420000Y-54010000D01*
D20*
X116200000Y-59220000D02*
X116330000Y-59350000D01*
%TD*%
D23*
X63540000Y-39000000D02*
X121100000Y-39000000D01*
X121100000Y-61240000D01*
X63540000Y-61240000D01*
X63540000Y-39000000D01*
M02*
