M48
; DRILL file {KiCad 7.0.1-0} date 2026 May 01, Friday 16:11:47
; FORMAT={-:-/ absolute / metric / decimal}
; #@! TF.CreationDate,2026-05-01T16:11:47-03:00
; #@! TF.GenerationSoftware,Kicad,Pcbnew,7.0.1-0
; #@! TF.FileFunction,MixedPlating,1,2
FMAT,2
METRIC
; #@! TA.AperFunction,Plated,PTH,ComponentDrill
T1C1.000
%
G90
G05
T1
X71.03Y-41.18
X71.61Y-46.92
X71.61Y-49.46
X71.61Y-52.0
X71.61Y-54.54
X73.57Y-41.18
X81.19Y-41.17
X84.31Y-46.92
X84.31Y-49.46
X84.31Y-52.0
X84.31Y-54.54
X101.509Y-58.96
X106.589Y-58.96
X110.78Y-43.98
X110.78Y-46.49
X110.78Y-49.02
X110.78Y-51.58
X111.669Y-58.96
X116.29Y-48.74
X116.31Y-41.01
X116.31Y-43.55
X116.31Y-46.09
X116.32Y-51.58
X116.33Y-54.27
X116.33Y-56.81
X116.33Y-59.35
X118.83Y-48.74
X118.86Y-51.58
T0
M30
